<?xml version="1.0" encoding="utf-8"?><svg xmlns="http://www.w3.org/2000/svg" width="274" height="103.6" viewBox="0 0 274 103.6"><defs><style>.a{fill:#4b8cca;}.b{fill:#fff;}</style></defs><title>agilitek-logo-web2</title><polygon class="a" points="39.683 95.882 67.807 73.264 62.979 95.758 71.632 88.799 76.15 67.747 77.653 60.747 70.494 60.747 49.012 60.747 40.308 67.747 63.341 67.747 28.358 95.882 39.683 95.882"/><path class="a" d="M126.4625,98.4789l.7009-3.3048h9.0381c.6011,0,.8514-.2.9763-.8262l.501-2.3536a1.1271,1.1271,0,0,0,.0249-.2751c0-.3256-.175-.451-.6508-.451H130.368c-1.352,0-1.9527-.6255-1.9527-1.6772a3.9727,3.9727,0,0,1,.0753-.7261l.9263-4.3812c.4253-2.0029,1.3268-2.9544,3.53-2.9544h10.54l-.6757,3.2295H133.823c-.5254,0-.7261.2006-.851.8014l-.4758,2.2282a1.7373,1.7373,0,0,0-.05.3256c0,.2752.15.3753.5507.3753h6.785c1.3768,0,1.978.6259,1.978,1.7024a3.7325,3.7325,0,0,1-.0753.7013l-.9764,4.6316c-.4257,2.0028-1.352,2.9543-3.505,2.9543Z"/><path class="a" d="M145.49,98.4789c-1.7025,0-2.4037-.6007-2.4037-1.8278a4.9981,4.9981,0,0,1,.15-1.1265l2.3284-11.0409c.4257-2.0029,1.352-2.9544,3.505-2.9544h8.4374c1.6776,0,2.3784.6007,2.3784,1.8526a6.2041,6.2041,0,0,1-.1249,1.1018l-2.3284,11.0409c-.4257,2.0028-1.3773,2.9543-3.5054,2.9543Zm10.19-12.6684a2.8641,2.8641,0,0,0,.05-.4005c0-.4257-.25-.5759-.8762-.5759h-4.7317c-.6508,0-.9015.2255-1.0517.9764l-1.8026,8.4373a2.104,2.104,0,0,0-.05.3256c0,.3753.2.5255.726.5255h4.7321c.801,0,1.0765-.25,1.2015-.8511Z"/><path class="a" d="M170.7748,98.4789H159.4083l3.58-16.95h3.8054L163.94,95.0488h7.5611Z"/><path class="a" d="M175.7813,98.4789c-1.7273,0-2.4033-.6007-2.4033-1.8526a4.5039,4.5039,0,0,1,.1249-1.1017l2.9544-13.9953h3.8054l-2.6789,12.6685a2.0541,2.0541,0,0,0-.0749.4505c0,.3757.2251.4506.751.4506h5.0072c.6512,0,.9263-.15,1.0765-.9011l2.6792-12.6685h3.6552l-2.9543,13.9953c-.4258,2.0028-1.3769,2.9543-3.5051,2.9543Z"/><path class="a" d="M196.9857,98.4789H193.18l2.88-13.62h-4.1062l.7012-3.33H204.697l-.7013,3.33h-4.131Z"/><path class="a" d="M203.244,98.4789l3.58-16.95H210.63l-3.58,16.95Z"/><path class="a" d="M212.7071,98.4789c-1.7025,0-2.4037-.6007-2.4037-1.8278a4.9924,4.9924,0,0,1,.15-1.1265l2.3284-11.0409c.4257-2.0029,1.352-2.9544,3.505-2.9544h8.4374c1.6776,0,2.3784.6007,2.3784,1.8526a6.17,6.17,0,0,1-.1253,1.1018L224.65,95.5246c-.4257,2.0028-1.3773,2.9543-3.5055,2.9543Zm10.19-12.6684a2.8641,2.8641,0,0,0,.05-.4005c0-.4257-.25-.5759-.8762-.5759h-4.7317c-.6508,0-.9015.2255-1.0517.9764l-1.8026,8.4373a2.104,2.104,0,0,0-.05.3256c0,.3753.2.5255.726.5255h4.7321c.801,0,1.0765-.25,1.2015-.8511Z"/><path class="a" d="M238.9191,98.4789,232.51,87.3627l-2.3533,11.1162h-3.53l3.58-16.95h3.58l5.5583,10.1146,2.1282-10.1146h3.5551l-3.58,16.95Z"/><path class="a" d="M244.1755,98.4789l.7008-3.3048h9.0381c.6011,0,.8514-.2.9768-.8262l.5006-2.3536a1.1315,1.1315,0,0,0,.0248-.2751c0-.3256-.175-.451-.6508-.451H248.081c-1.352,0-1.9528-.6255-1.9528-1.6772a3.9815,3.9815,0,0,1,.0753-.7261l.9263-4.3812c.4254-2.0029,1.3268-2.9544,3.53-2.9544H261.2l-.6756,3.2295H251.536c-.5255,0-.7261.2006-.8511.8014l-.4758,2.2282a1.7364,1.7364,0,0,0-.05.3256c0,.2752.15.3753.5507.3753h6.7849c1.3769,0,1.978.6259,1.978,1.7024a3.7242,3.7242,0,0,1-.0753.7013l-.9764,4.6316c-.4257,2.0028-1.352,2.9543-3.505,2.9543Z"/><path class="b" d="M105.4957,46.6519c-4.23,0-5.993,1.8213-6.8153,5.8163L94.8616,70.5631a12.2267,12.2267,0,0,0-.2937,2.2912c0,2.4087,1.3515,3.5251,4.6411,3.5251h14.1l1.41-6.6978h-9.87c-.9985,0-1.3509-.2349-1.3509-.94a2.8813,2.8813,0,0,1,.0587-.6457l2.7024-12.69c.2349-1.234.646-1.6451,1.9387-1.6451h12.8078L115.4244,80.022c-.2937,1.2931-.7048,1.7038-1.9975,1.7038H93.569l-1.5272,7.1094h24.0875c4.2891,0,5.993-1.8213,6.874-5.8163l7.7551-36.367Z"/><polygon class="b" points="147.618 34.197 139.333 34.197 137.454 43.127 145.738 43.127 147.618 34.197"/><polygon class="b" points="130.404 76.379 138.629 76.379 144.915 46.652 136.69 46.652 130.404 76.379"/><polygon class="b" points="154.079 34.197 145.149 76.379 153.374 76.379 162.304 34.197 154.079 34.197"/><polygon class="b" points="159.835 76.379 168.06 76.379 174.346 46.652 166.121 46.652 159.835 76.379"/><polygon class="b" points="168.765 34.197 166.885 43.127 175.169 43.127 177.049 34.197 168.765 34.197"/><path class="b" d="M187.5639,53.1147h7.1677l1.3513-6.4628h-7.1676l1.7621-8.2837h-8.2249l-6.8153,32.1949a12.2559,12.2559,0,0,0-.2933,2.2912c0,2.4087,1.3515,3.5251,4.6407,3.5251h9.5763l1.3515-6.462h-5.4048c-.8814,0-1.2931-.1766-1.2931-.8231a4.9335,4.9335,0,0,1,.1175-.7632Z"/><path class="b" d="M226.1024,46.6519H206.009c-4.2882,0-6.0512,1.8213-6.8736,5.8163l-3.8183,18.0949a12.1893,12.1893,0,0,0-.2941,2.2912c0,2.4087,1.3514,3.5251,4.7,3.5251h24.0884l1.41-6.7561H205.1867c-.999,0-1.3514-.1766-1.3514-.8815a6.1916,6.1916,0,0,1,.1175-.8815l2.7619-12.8068c.2933-1.2927.5874-1.6451,1.9388-1.6451h11.8084c.94,0,1.2338.2349,1.2338.8223a3.6515,3.6515,0,0,1-.0582.764l-.8815,3.995H208.771l-.999,4.9348h19.7992l2.467-11.6913a10.1563,10.1563,0,0,0,.2349-2.1737C230.2731,47.7683,229.0984,46.6519,226.1024,46.6519Z"/><path class="b" d="M261.0566,58.5786h-5.6989L268.4,46.6519h-9.0473L243.9009,61.1634l-.6457,2.996h11.75c1.3515,0,1.8213.3525,1.8213,1.2923a8.3614,8.3614,0,0,1-.1174,1.0581l-2.0563,9.87h8.225l2.4086-11.5151a10.148,10.148,0,0,0,.2349-2.1737C265.5214,59.9878,264.0526,58.5786,261.0566,58.5786Z"/><polygon class="b" points="239.848 34.197 230.917 76.379 239.201 76.379 248.131 34.197 239.848 34.197"/><path class="b" d="M102.87,5.6569H96.2941a11.3485,11.3485,0,0,0-1.3666.08,6.1213,6.1213,0,0,0-2.94,1.059l-.4354.35L5.4671,76.3794H16.7928L87.84,19.24l5.0691-4.0768-6.7434,31.489H64.8339L56.0081,53.75H84.6454l-4.846,22.6294H87.725l14.7586-68.917Z"/></svg>